<?xml version="1.0" encoding="UTF-8"?>
<svg id="b" data-name="Layer 2" xmlns="http://www.w3.org/2000/svg" viewBox="0 0 20 20">
  <g id="c" data-name="Layer 2">
    <path d="M.17,19.83h0c-.22-.22-.22-.58,0-.8l7.55-7.55c.41-.41.52-1.06.21-1.56-.75-1.21-1.11-2.68-.91-4.25C7.39,2.7,9.86.31,12.85.03c4.09-.39,7.5,3.03,7.12,7.11-.28,2.99-2.66,5.46-5.65,5.84-1.56.2-3.04-.16-4.25-.91-.5-.31-1.15-.2-1.56.21L.96,19.83c-.22.22-.58.22-.8,0ZM14.4,1.2c-3.68-.61-6.84,2.55-6.23,6.23.37,2.23,2.17,4.03,4.4,4.4,3.68.61,6.84-2.55,6.23-6.23-.37-2.23-2.17-4.03-4.4-4.4Z"/>
  </g>
</svg>